<svg xmlns="http://www.w3.org/2000/svg" viewBox="0 0 500 500" width="500" height="500">
  <!-- 背景 -->
  <rect x="0" y="0" width="500" height="500" fill="#f8f3e9" />
  
  <!-- 胶片边框 -->
  <rect x="20" y="20" width="460" height="460" fill="none" stroke="#333" stroke-width="2" />
  
  <!-- 胶片穿孔 -->
  <g fill="#333">
    <circle cx="40" cy="40" r="8" />
    <circle cx="40" cy="80" r="8" />
    <circle cx="40" cy="120" r="8" />
    <circle cx="40" cy="160" r="8" />
    <circle cx="40" cy="200" r="8" />
    <circle cx="40" cy="240" r="8" />
    <circle cx="40" cy="280" r="8" />
    <circle cx="40" cy="320" r="8" />
    <circle cx="40" cy="360" r="8" />
    <circle cx="40" cy="400" r="8" />
    <circle cx="40" cy="440" r="8" />
    
    <circle cx="460" cy="40" r="8" />
    <circle cx="460" cy="80" r="8" />
    <circle cx="460" cy="120" r="8" />
    <circle cx="460" cy="160" r="8" />
    <circle cx="460" cy="200" r="8" />
    <circle cx="460" cy="240" r="8" />
    <circle cx="460" cy="280" r="8" />
    <circle cx="460" cy="320" r="8" />
    <circle cx="460" cy="360" r="8" />
    <circle cx="460" cy="400" r="8" />
    <circle cx="460" cy="440" r="8" />
  </g>
  
  <!-- 中心圆形 -->
  <circle cx="250" cy="250" r="150" fill="#ff69b4" opacity="0.8" />
  
  <!-- 复古相机 -->
  <g transform="translate(150, 180) scale(0.8)">
    <!-- 相机主体 -->
    <rect x="0" y="0" width="250" height="150" rx="15" ry="15" fill="#333" />
    
    <!-- 相机顶部 -->
    <rect x="50" y="-20" width="150" height="20" rx="5" ry="5" fill="#333" />
    
    <!-- 镜头 -->
    <circle cx="125" cy="75" r="50" fill="#555" />
    <circle cx="125" cy="75" r="40" fill="#222" />
    <circle cx="125" cy="75" r="30" fill="#555" />
    <circle cx="125" cy="75" r="20" fill="#222" />
    <circle cx="125" cy="75" r="10" fill="#555" />
    
    <!-- 闪光灯 -->
    <rect x="200" y="20" width="30" height="15" rx="5" ry="5" fill="#ddd" />
    
    <!-- 取景器 -->
    <rect x="70" y="-10" width="30" height="10" fill="#222" />
    
    <!-- 快门按钮 -->
    <circle cx="220" cy="50" r="10" fill="#ddd" />
  </g>
  
  <!-- 文字 "PICA PICA" -->
  <text x="250" y="100" font-family="'Courier New', monospace" font-size="42" font-weight="bold" text-anchor="middle" fill="#ff69b4" style="letter-spacing: 2px;">PICA PICA</text>
  
  <!-- 文字 "PHOTO BOOTH" -->
  <text x="250" y="400" font-family="'Courier New', monospace" font-size="24" font-weight="bold" text-anchor="middle" fill="#333" style="letter-spacing: 1px;">PHOTO BOOTH</text>
  
  <!-- 复古时间戳 -->
  <text x="250" y="430" font-family="'Courier New', monospace" font-size="12" text-anchor="middle" fill="#666">EXPOSED: 03-13-2025</text>
  
  <!-- 划痕效果 -->
  <line x1="100" y1="150" x2="150" y2="300" stroke="#fff" stroke-width="1" opacity="0.3" />
  <line x1="400" y1="200" x2="300" y2="350" stroke="#fff" stroke-width="1" opacity="0.3" />
  <line x1="200" y1="50" x2="250" y2="150" stroke="#fff" stroke-width="1" opacity="0.3" />
</svg> 